<svg width="28" height="28" viewBox="0 0 28 28" fill="none" xmlns="http://www.w3.org/2000/svg">
<path d="M28.0002 24.1111C28.0002 25.1425 27.5905 26.1317 26.8612 26.861C26.1319 27.5903 25.1428 28 24.1114 28H3.88913C2.85774 28 1.86858 27.5903 1.13927 26.861C0.409965 26.1317 0.000244141 25.1425 0.000244141 24.1111V3.88889C0.000244141 2.85749 0.409965 1.86834 1.13927 1.13903C1.86858 0.409721 2.85774 0 3.88913 0H24.1114C25.1428 0 26.1319 0.409721 26.8612 1.13903C27.5905 1.86834 28.0002 2.85749 28.0002 3.88889V24.1111Z" fill="#F2F2F2"/>
<path d="M19.3498 11.0042C18.9523 11.1894 18.4488 11.3633 17.9976 11.4211C18.4564 11.1349 19.1844 10.5391 19.3498 10C18.9212 10.2648 18.1459 10.5476 17.6401 10.6499C17.2362 10.1999 16.6602 10 16.0219 10C14.7958 10 13.9407 11.0918 13.9407 12.3684V13.3158C12.1377 13.3158 10.3798 11.8725 9.28576 10.4737C9.08795 10.8262 8.9841 11.2283 8.98511 11.6375C8.98511 12.4992 9.73832 13.3736 10.3347 13.7895C9.97092 13.7776 9.28216 13.4858 8.9824 13.3158V13.3428C8.9824 14.464 9.73111 15.2252 10.7458 15.4374C10.5605 15.4909 10.3347 15.6842 9.46562 15.6842C9.74779 16.6008 11.1663 17.0854 12.1377 17.1053C11.3777 17.7244 10.0228 18.0526 8.9824 18.0526C8.80255 18.0526 8.70519 18.0631 8.53165 18.0417C9.5134 18.6954 10.8846 19 12.1377 19C16.2202 19 18.4483 15.7231 18.4483 12.6668C18.4483 12.5664 18.4452 12.2301 18.4402 12.1316C18.8765 11.8085 19.0532 11.4703 19.3498 11.0042Z" fill="#313131"/>
</svg>
